<?xml version="1.0" encoding="utf-8"?>
<!-- Generator: Adobe Illustrator 26.3.1, SVG Export Plug-In . SVG Version: 6.00 Build 0)  -->
<svg version="1.1" xmlns="http://www.w3.org/2000/svg" xmlns:xlink="http://www.w3.org/1999/xlink" x="0px" y="0px" viewBox="0 0 1349.19 612" style="enable-background:new 0 0 1349.19 612;" xml:space="preserve">
  <style type="text/css">
	.st0{fill:#009640;}
	.st1{fill-rule:evenodd;clip-rule:evenodd;fill:#009C92;}
	.st2{fill-rule:evenodd;clip-rule:evenodd;fill:#2950AF;}
	.st3{fill:#2950AF;}
	.st4{fill:#009C92;}
</style>
  <symbol id="Bush_Left" viewBox="-43.3 -24.31 86.6 48.62">
    <g>
      <g>
        <path class="st0" d="M-33.89-3.51c8.3,8.89,13.24,21.56,13.24,21.56C-24.14,7.54-28.21,2.32-34.92-6.17L-33.89-3.51z" />
        <path class="st0" d="M-30.49,3.16c0.3,2.26,2.38,11.44,2.38,11.44l-2.15-5.59c-0.48-2.88,0.76-5.55,0.45-7.95L-30.49,3.16z" />
        <path class="st0" d="M-27.67,8.56c0.3,2.27,1.73,9.83,1.73,9.83l-0.53-3.79c0-2.44-0.21-5.74-0.53-8.14L-27.67,8.56z" />
        <path class="st0" d="M-24.19,13.38c0.22,1.38,3.05,6.61,3.05,6.61l-2.18-2.93c0-1.49-0.15-3.5-0.38-4.96L-24.19,13.38z" />
        <path class="st0" d="M-21.17,18.08c0.6,1.18,2.76,6.23,2.76,6.23l-1.28-3.51c-0.31-1.29-0.96-3.02-1.6-4.26L-21.17,18.08z" />
        <path class="st0" d="M-26.04,10.33c0.3,2.27,1.73,9.83,1.73,9.83l-1.16-4.84c0-2.44,0.42-4.7,0.11-7.09L-26.04,10.33z" />
        <path class="st0" d="M-24.52,3.49c1.42,0.87,6.5,3.4,6.5,3.4l-3.35-2.2c-1.77-1.16-5.32-0.63-6.83-1.54L-24.52,3.49z" />
        <path class="st0" d="M-21.85,6.88c1.9,1.26,6.13,5.08,6.13,5.08l-3.16-2.14c-2.19-1.07-5.05-2.71-7.06-4.04L-21.85,6.88z" />
        <path class="st0" d="M-21.84,13.09c1.04,0.93,3.87,6.17,3.87,6.17l-1.26-3.43c-1.24-0.81-2.84-2.04-3.94-3.03L-21.84,13.09z" />
        <path class="st0" d="M-23.27,9.47c1.58,1.01,5.96,5.85,5.96,5.85l-2.63-3.88c-1.82-0.86-3.47-1.16-5.14-2.23L-23.27,9.47z" />
        <path class="st0" d="M-32.97,0.37c0.3,2.26,1.6,12.74,1.6,12.74l-1.38-6.89c-0.48-2.88,0.76-5.55,0.45-7.95L-32.97,0.37z" />
        <path class="st0" d="M-34.97-1.26c0.3,2.27,1.6,12.74,1.6,12.74l-1.38-6.89c-0.48-2.88,0.76-5.56,0.45-7.95L-34.97-1.26z" />
        <path class="st0" d="M-29.4-0.56c1.55,0.61,10.18,4.28,10.18,4.28l-4.82-3.12c-1.95-0.84-5.36-0.45-7-1.09L-29.4-0.56z" />
        <path class="st0" d="M-29.97-3.32c1.73,0.74,9.73,4.11,9.73,4.11l-5.13-2.75c-2.17-1.05-4.61-0.29-6.44-1.08L-29.97-3.32z" />
      </g>
      <g>
        <path class="st0" d="M-41.11-9.82c17.33-2.83,35.77-10.6,35.77-10.6C-18.81-13.76-28.1-11.68-43.3-8.34L-41.11-9.82z" />
        <path class="st0" d="M-29.85-13.56c2.4-1.68,13.09-8,13.09-8l-7.5,3.39c-3.16,2.08-4.23,4.89-6.77,6.67L-29.85-13.56z" />
        <path class="st0" d="M-21.79-16.45c2.4-1.68,10.89-7.04,10.89-7.04l-4.05,2.79c-2.23,1.97-5.48,4.54-8.02,6.31L-21.79-16.45z" />
        <path class="st0" d="M-13.53-18.51c1.5-1,9.43-3.74,9.43-3.74l-5.1,1.22c-1.36,1.2-3.37,2.75-4.96,3.81L-13.53-18.51z" />
        <path class="st0" d="M-5.89-20.72c1.74-0.63,8.76-3.59,8.76-3.59l-4.63,2.17c-1.52,0.88-3.82,1.94-5.67,2.61L-5.89-20.72z" />
        <path class="st0" d="M-18.37-17.02c2.4-1.68,10.9-7.04,10.9-7.04l-5.71,3.3c-2.23,1.97-3.83,4.02-6.37,5.79L-18.37-17.02z" />
        <path class="st0" d="M-22.94-10.69c2.37,0.05,10.31,0.67,10.31,0.67L-18.35-10c-3.03,0.01-6.48-2.29-8.98-2.34L-22.94-10.69z" />
        <path class="st0" d="M-16.88-12.03c3.26-0.02,11.44-0.88,11.44-0.88l-5.46,0.07c-3.4-0.29-8.08-0.47-11.53-0.45L-16.88-12.03z" />
        <path class="st0" d="M-11.19-17.04c2-0.21,9.92-2.96,9.92-2.96l-4.54,2.11c-2.12,0-5.01,0.15-7.13,0.37L-11.19-17.04z" />
        <path class="st0" d="M-16.08-14.87c2.67,0.01,11.96-1.59,11.96-1.59l-6.46,1.75c-2.8-0.26-4.91-0.89-7.74-0.9L-16.08-14.87z" />
        <path class="st0" d="M-35.15-12.6c2.4-1.68,13.41-9.46,13.41-9.46l-7.82,4.85c-3.16,2.08-4.23,4.89-6.77,6.67L-35.15-12.6z" />
        <path class="st0" d="M-38.86-12.34c2.4-1.68,13.41-9.46,13.41-9.46l-7.82,4.85c-3.16,2.08-4.23,4.89-6.77,6.67L-38.86-12.34z" />
        <path class="st0" d="M-32.05-9.98c2.27,0.33,15.2,1.89,15.2,1.89l-8.2-0.01c-2.93-0.35-6.36-2.46-8.77-2.8L-32.05-9.98z" />
        <path class="st0" d="M-35.2-8.05c2.59,0.31,14.54,1.8,14.54,1.8l-8.2-0.48c-3.37-0.29-5.38-2.19-8.13-2.52L-35.2-8.05z" />
      </g>
      <g>
        <path class="st0" d="M-20.02-4.79c13.51-1.99,27.73-7.05,27.73-7.05c-10.5,4.69-17.74,6.16-29.59,8.51L-20.02-4.79z" />
        <path class="st0" d="M-11.4-7.01C-9.53-8.2-1.2-12.65-1.2-12.65l-5.85,2.39c-2.47,1.46-3.3,3.45-5.28,4.7L-11.4-7.01z" />
        <path class="st0" d="M-5.11-9.05c1.87-1.18,8.49-4.96,8.49-4.96l-3.16,1.96c-1.74,1.39-4.27,3.19-6.25,4.44L-5.11-9.05z" />
        <path class="st0" d="M1.32-10.5c1.17-0.71,7.35-2.64,7.35-2.64L4.7-12.27c-1.06,0.85-2.63,1.94-3.87,2.69L1.32-10.5z" />
        <path class="st0" d="M7.28-12.06c1.36-0.45,6.83-2.53,6.83-2.53l-3.61,1.52c-1.19,0.62-2.98,1.37-4.42,1.84L7.28-12.06z" />
        <path class="st0" d="M-2.45-9.45c1.87-1.18,8.49-4.96,8.49-4.96l-4.45,2.33c-1.74,1.39-2.98,2.83-4.96,4.08L-2.45-9.45z" />
        <path class="st0" d="M-6.01-4.99c1.85,0.03,8.04,0.47,8.04,0.47l-4.46,0.01c-2.36,0.01-5.05-1.62-7-1.65L-6.01-4.99z" />
        <path class="st0" d="M-1.29-5.94c2.54-0.01,8.92-0.62,8.92-0.62L3.37-6.51c-2.65-0.2-6.3-0.33-8.99-0.31L-1.29-5.94z" />
        <path class="st0" d="M3.15-9.46c1.56-0.15,7.74-2.08,7.74-2.08l-3.54,1.49c-1.65,0-3.91,0.11-5.56,0.26L3.15-9.46z" />
        <path class="st0" d="M-0.67-7.94c2.08,0.01,9.32-1.12,9.32-1.12L3.62-7.83C1.44-8.01-0.21-8.45-2.41-8.46L-0.67-7.94z" />
        <path class="st0" d="M-15.54-6.34C-13.66-7.52-5.08-13-5.08-13l-6.1,3.41c-2.47,1.46-3.3,3.45-5.28,4.7L-15.54-6.34z" />
        <path class="st0" d="M-18.43-6.15c1.87-1.18,10.46-6.66,10.46-6.66l-6.1,3.41c-2.47,1.46-3.3,3.45-5.28,4.7L-18.43-6.15z" />
        <path class="st0" d="M-13.11-4.5c1.77,0.23,11.85,1.33,11.85,1.33l-6.39-0.01c-2.28-0.25-4.96-1.73-6.83-1.97L-13.11-4.5z" />
        <path class="st0" d="M-15.57-3.13c2.02,0.22,11.34,1.27,11.34,1.27l-6.39-0.34c-2.62-0.21-4.19-1.54-6.34-1.77L-15.57-3.13z" />
      </g>
      <g>
        <path class="st0" d="M1.65-2.06c12.24-1.71,25.11-6.07,25.11-6.07c-9.51,4.03-16.07,5.3-26.8,7.32L1.65-2.06z" />
        <path class="st0" d="M9.46-3.97c1.69-1.01,9.24-4.85,9.24-4.85l-5.29,2.05C11.17-5.5,10.42-3.8,8.63-2.72L9.46-3.97z" />
        <path class="st0" d="M15.15-5.71c1.69-1.02,7.69-4.27,7.69-4.27l-2.86,1.69c-1.57,1.2-3.87,2.75-5.66,3.82L15.15-5.71z" />
        <path class="st0" d="M20.98-6.96c1.06-0.61,6.65-2.27,6.65-2.27l-3.6,0.74c-0.96,0.73-2.38,1.67-3.5,2.31L20.98-6.96z" />
        <path class="st0" d="M26.38-8.3c1.23-0.38,6.18-2.17,6.18-2.17l-3.27,1.31c-1.08,0.53-2.7,1.17-4,1.58L26.38-8.3z" />
        <path class="st0" d="M17.57-6.06c1.69-1.01,7.69-4.27,7.69-4.27l-4.03,2c-1.57,1.2-2.7,2.44-4.49,3.51L17.57-6.06z" />
        <path class="st0" d="M14.34-2.22c1.67,0.03,7.28,0.41,7.28,0.41l-4.04,0.01c-2.14,0-4.57-1.39-6.34-1.42L14.34-2.22z" />
        <path class="st0" d="M18.62-3.04c2.3-0.01,8.07-0.53,8.07-0.53l-3.86,0.04c-2.4-0.17-5.7-0.28-8.14-0.27L18.62-3.04z" />
        <path class="st0" d="M22.64-6.07c1.41-0.13,7.01-1.79,7.01-1.79l-3.2,1.28c-1.5,0-3.54,0.09-5.04,0.23L22.64-6.07z" />
        <path class="st0" d="M19.18-4.76c1.89,0.01,8.44-0.97,8.44-0.97l-4.56,1.06C21.09-4.82,19.6-5.2,17.6-5.21L19.18-4.76z" />
        <path class="st0" d="M5.72-3.39c1.69-1.02,9.47-5.73,9.47-5.73L9.66-6.18C7.43-4.92,6.68-3.22,4.88-2.14L5.72-3.39z" />
        <path class="st0" d="M3.1-3.23c1.69-1.01,9.47-5.73,9.47-5.73L7.05-6.02C4.81-4.76,4.06-3.06,2.27-1.98L3.1-3.23z" />
        <path class="st0" d="M7.91-1.8c1.6,0.2,10.73,1.15,10.73,1.15l-5.79-0.01c-2.07-0.21-4.49-1.49-6.19-1.7L7.91-1.8z" />
        <path class="st0" d="M5.69-0.63c1.83,0.19,10.27,1.09,10.27,1.09l-5.79-0.29c-2.38-0.18-3.8-1.33-5.74-1.52L5.69-0.63z" />
      </g>
      <g>
        <path class="st0" d="M14,2.84c11.08-1.47,22.74-5.22,22.74-5.22c-8.61,3.47-14.55,4.56-24.26,6.29L14,2.84z" />
        <path class="st0" d="M21.07,1.19c1.53-0.87,8.37-4.17,8.37-4.17l-4.79,1.77c-2.02,1.08-2.7,2.55-4.33,3.47L21.07,1.19z" />
        <path class="st0" d="M26.23-0.31c1.53-0.87,6.96-3.67,6.96-3.67L30.6-2.53c-1.43,1.03-3.5,2.36-5.13,3.29L26.23-0.31z" />
        <path class="st0" d="M31.5-1.39c0.96-0.52,6.03-1.95,6.03-1.95L34.27-2.7c-0.87,0.63-2.15,1.43-3.17,1.99L31.5-1.39z" />
        <path class="st0" d="M36.39-2.54c1.11-0.33,5.6-1.87,5.6-1.87l-2.96,1.13c-0.97,0.46-2.44,1.01-3.62,1.36L36.39-2.54z" />
        <path class="st0" d="M28.41-0.61c1.53-0.87,6.96-3.67,6.96-3.67l-3.65,1.72c-1.43,1.03-2.45,2.09-4.07,3.02L28.41-0.61z" />
        <path class="st0" d="M25.49,2.69c1.51,0.02,6.59,0.35,6.59,0.35l-3.66,0.01c-1.94,0-4.14-1.2-5.74-1.22L25.49,2.69z" />
        <path class="st0" d="M29.37,1.99c2.08-0.01,7.31-0.46,7.31-0.46l-3.49,0.03c-2.17-0.15-5.16-0.24-7.37-0.23L29.37,1.99z" />
        <path class="st0" d="M33-0.62c1.28-0.11,6.34-1.54,6.34-1.54l-2.9,1.1c-1.36,0-3.21,0.08-4.56,0.2L33-0.62z" />
        <path class="st0" d="M29.87,0.51c1.71,0.01,7.64-0.83,7.64-0.83l-4.13,0.91c-1.79-0.14-3.14-0.46-4.95-0.47L29.87,0.51z" />
        <path class="st0" d="M17.68,1.69c1.53-0.87,8.57-4.93,8.57-4.93l-5,2.53c-2.02,1.08-2.7,2.55-4.33,3.47L17.68,1.69z" />
        <path class="st0" d="M15.31,1.83c1.53-0.87,8.57-4.93,8.57-4.93l-5,2.53c-2.02,1.08-2.7,2.55-4.33,3.47L15.31,1.83z" />
        <path class="st0" d="M19.67,3.06c1.45,0.17,9.72,0.99,9.72,0.99l-5.24-0.01c-1.87-0.18-4.07-1.28-5.6-1.46L19.67,3.06z" />
        <path class="st0" d="M17.65,4.07C19.31,4.23,26.95,5,26.95,5l-5.24-0.25c-2.15-0.15-3.44-1.14-5.2-1.31L17.65,4.07z" />
      </g>
      <g>
        <path class="st0" d="M-16.82,0.15C-9.21,6.41-2.93,16.13-2.93,16.13C-7.01,7.95-10.86,4.17-17.18-1.96L-16.82,0.15z" />
        <path class="st0" d="M-12.52,5.15c0.52,1.82,3.33,9.08,3.33,9.08l-2.4-4.32c-0.75-2.3-0.13-4.65-0.68-6.57L-12.52,5.15z" />
        <path class="st0" d="M-9.62,9.23C-9.1,11.05-7,17.07-7,17.07l-0.9-3.04c-0.32-2-0.91-4.68-1.47-6.61L-9.62,9.23z" />
        <path class="st0" d="M-6.29,12.74c0.35,1.11,3.23,5.04,3.23,5.04l-2.08-2.13c-0.19-1.22-0.57-2.85-0.94-4.02L-6.29,12.74z" />
        <path class="st0" d="M-3.33,16.22c0.62,0.89,2.96,4.77,2.96,4.77l-1.45-2.72c-0.41-1.02-1.14-2.36-1.79-3.3L-3.33,16.22z" />
        <path class="st0" d="M-8.13,10.47c0.53,1.82,2.62,7.84,2.62,7.84l-1.53-3.82c-0.32-2-0.28-3.9-0.84-5.83L-8.13,10.47z" />
        <path class="st0" d="M-7.83,4.68c1.22,0.53,5.5,1.98,5.5,1.98l-2.89-1.39c-1.53-0.74-4.22,0.14-5.51-0.42L-7.83,4.68z" />
        <path class="st0" d="M-5.32,7.13c1.64,0.8,5.43,3.41,5.43,3.41l-2.74-1.36c-1.84-0.61-4.28-1.6-6.02-2.44L-5.32,7.13z" />
        <path class="st0" d="M-4.5,12.21c0.93,0.64,3.81,4.58,3.81,4.58l-1.43-2.66c-1.07-0.51-2.48-1.32-3.46-1.99L-4.5,12.21z" />
        <path class="st0" d="M-6.08,9.43c1.36,0.63,5.4,4.06,5.4,4.06l-2.55-2.85c-1.52-0.48-2.85-0.52-4.29-1.19L-6.08,9.43z" />
        <path class="st0" d="M-14.81,3.16c0.52,1.82,2.9,10.24,2.9,10.24l-1.97-5.47c-0.75-2.3-0.13-4.65-0.68-6.57L-14.81,3.16z" />
        <path class="st0" d="M-16.58,2.07c0.53,1.82,2.9,10.24,2.9,10.24l-1.96-5.47c-0.75-2.3-0.13-4.65-0.68-6.57L-16.58,2.07z" />
        <path class="st0" d="M-12.16,1.96c1.28,0.31,8.48,2.26,8.48,2.26l-4.16-1.96c-1.63-0.45-4.23,0.29-5.59-0.03L-12.16,1.96z" />
        <path class="st0" d="M-12.96-0.23c1.44,0.4,8.1,2.17,8.1,2.17L-9.2,0.32c-1.83-0.59-3.63,0.33-5.15-0.09L-12.96-0.23z" />
      </g>
      <g>
        <path class="st0" d="M-1.74,1.38c5.02,5.23,8.85,13.01,8.85,13.01C4.75,7.92,2.25,4.81-1.85-0.24L-1.74,1.38z" />
        <path class="st0" d="M1,5.44c0.25,1.42,1.78,7.11,1.78,7.11L1.35,9.12C0.97,7.33,1.57,5.58,1.3,4.09L1,5.44z" />
        <path class="st0" d="M2.8,8.72c0.25,1.42,1.35,6.12,1.35,6.12L3.7,12.48C3.61,10.94,3.36,8.86,3.1,7.37L2.8,8.72z" />
        <path class="st0" d="M4.94,11.6c0.17,0.86,1.97,4.03,1.97,4.03l-1.34-1.75c-0.06-0.94-0.22-2.2-0.41-3.11L4.94,11.6z" />
        <path class="st0" d="M6.82,14.43c0.38,0.71,1.79,3.81,1.79,3.81l-0.86-2.16c-0.23-0.8-0.66-1.86-1.06-2.62L6.82,14.43z" />
        <path class="st0" d="M3.78,9.76c0.25,1.42,1.35,6.12,1.35,6.12l-0.84-3C4.2,11.35,4.35,9.91,4.08,8.41L3.78,9.76z" />
        <path class="st0" d="M4.38,5.38c0.83,0.48,3.79,1.85,3.79,1.85L6.2,5.99C5.15,5.34,3.17,5.84,2.29,5.33L4.38,5.38z" />
        <path class="st0" d="M6.01,7.4c1.12,0.71,3.65,2.92,3.65,2.92L7.79,9.12C6.52,8.54,4.84,7.64,3.66,6.89L6.01,7.4z" />
        <path class="st0" d="M6.26,11.31c0.62,0.54,2.41,3.72,2.41,3.72l-0.84-2.11c-0.73-0.46-1.68-1.16-2.34-1.73L6.26,11.31z" />
        <path class="st0" d="M5.31,9.1c0.93,0.57,3.58,3.42,3.58,3.42l-1.63-2.33c-1.06-0.46-2-0.57-2.98-1.17L5.31,9.1z" />
        <path class="st0" d="M-0.5,3.79c0.25,1.42,1.39,7.96,1.39,7.96l-1.04-4.28c-0.38-1.8,0.22-3.54-0.05-5.04L-0.5,3.79z" />
        <path class="st0" d="M-1.69,2.86c0.25,1.42,1.39,7.96,1.39,7.96l-1.04-4.28C-1.72,4.74-1.12,3-1.39,1.5L-1.69,2.86z" />
        <path class="st0" d="M1.47,3.05c0.9,0.31,5.9,2.24,5.9,2.24L4.54,3.54C3.41,3.1,1.5,3.5,0.55,3.17L1.47,3.05z" />
        <path class="st0" d="M1.05,1.33c1,0.39,5.64,2.15,5.64,2.15l-3-1.5C2.43,1.42,1.08,2.01,0.02,1.59L1.05,1.33z" />
      </g>
      <g>
        <path class="st0" d="M10.39,4.12c5.33,4.5,9.14,10.95,9.14,10.95c-2.24-5.31-4.85-7.95-9.16-12.25L10.39,4.12z" />
        <path class="st0" d="M13.22,7.54c0.19,1.15,1.53,5.79,1.53,5.79l-1.38-2.83c-0.31-1.46,0.49-2.81,0.29-4.02L13.22,7.54z" />
        <path class="st0" d="M15.03,10.28c0.19,1.15,1.11,4.97,1.11,4.97l-0.34-1.92c0-1.23-0.14-2.9-0.34-4.12L15.03,10.28z" />
        <path class="st0" d="M17.26,12.71c0.14,0.7,1.96,3.34,1.96,3.34l-1.4-1.48c0-0.75-0.1-1.77-0.25-2.51L17.26,12.71z" />
        <path class="st0" d="M19.2,15.09c0.39,0.59,1.77,3.15,1.77,3.15l-0.82-1.77c-0.2-0.65-0.62-1.53-1.02-2.16L19.2,15.09z" />
        <path class="st0" d="M16.07,11.17c0.19,1.14,1.11,4.97,1.11,4.97l-0.75-2.45c0-1.23,0.27-2.38,0.07-3.59L16.07,11.17z" />
        <path class="st0" d="M17.05,7.71c0.91,0.44,4.17,1.72,4.17,1.72l-2.15-1.11C17.93,7.73,15.65,8,14.68,7.54L17.05,7.71z" />
        <path class="st0" d="M18.76,9.43c1.22,0.64,3.93,2.57,3.93,2.57l-2.03-1.08c-1.4-0.54-3.24-1.37-4.53-2.04L18.76,9.43z" />
        <path class="st0" d="M18.77,12.56c0.67,0.47,2.48,3.12,2.48,3.12l-0.81-1.74c-0.8-0.41-1.82-1.03-2.53-1.53L18.77,12.56z" />
        <path class="st0" d="M17.85,10.73c1.01,0.51,3.83,2.96,3.83,2.96l-1.69-1.96c-1.17-0.43-2.23-0.59-3.3-1.13L17.85,10.73z" />
        <path class="st0" d="M11.63,6.13c0.19,1.15,1.03,6.44,1.03,6.44l-0.88-3.48c-0.31-1.46,0.49-2.81,0.29-4.02L11.63,6.13z" />
        <path class="st0" d="M10.34,5.31c0.19,1.15,1.03,6.44,1.03,6.44l-0.88-3.48c-0.31-1.46,0.49-2.81,0.29-4.02L10.34,5.31z" />
        <path class="st0" d="M13.91,5.66c0.99,0.31,6.53,2.17,6.53,2.17l-3.09-1.58c-1.25-0.42-3.44-0.23-4.49-0.55L13.91,5.66z" />
        <path class="st0" d="M13.55,4.27c1.11,0.38,6.24,2.08,6.24,2.08L16.5,4.95c-1.39-0.53-2.96-0.15-4.13-0.54L13.55,4.27z" />
      </g>
      <g>
        <path class="st0" d="M22.36,7.21c9.26,2.04,17.47,6.53,17.47,6.53C34.26,9.67,29.5,8.27,21.69,6L22.36,7.21z" />
        <path class="st0" d="M27.78,9.27c0.82,1,4.87,4.8,4.87,4.8l-3.22-2.09c-1.12-1.24-0.74-2.84-1.61-3.89L27.78,9.27z" />
        <path class="st0" d="M31.52,11.09c0.82,1,3.92,4.21,3.92,4.21l-1.4-1.66c-0.61-1.16-1.61-2.67-2.48-3.73L31.52,11.09z" />
        <path class="st0" d="M35.67,12.46c0.53,0.6,4.24,2.34,4.24,2.34l-2.58-0.82c-0.37-0.71-1-1.62-1.56-2.26L35.67,12.46z" />
        <path class="st0" d="M39.4,13.89c0.8,0.4,3.9,2.23,3.9,2.23l-1.96-1.33c-0.59-0.53-1.57-1.18-2.42-1.6L39.4,13.89z" />
        <path class="st0" d="M33.34,11.5c0.82,1,3.92,4.21,3.92,4.21l-2.19-1.99c-0.61-1.16-0.82-2.34-1.68-3.4L33.34,11.5z" />
        <path class="st0" d="M32.92,7.85c1.42,0.04,6.35-0.1,6.35-0.1l-3.39-0.16c-1.79-0.09-4.67,1.1-6.17,1.06L32.92,7.85z" />
        <path class="st0" d="M36.03,8.76c1.92,0.1,6.46,0.8,6.46,0.8l-3.22-0.18c-2.12,0.07-4.96,0.04-7-0.06L36.03,8.76z" />
        <path class="st0" d="M37.59,11.7c1.11,0.17,4.82,1.91,4.82,1.91l-1.93-1.3c-1.26-0.06-2.92-0.22-4.1-0.4L37.59,11.7z" />
        <path class="st0" d="M35.47,10.36c1.59,0.06,6.52,1.21,6.52,1.21l-3.2-1.15c-1.75,0.07-3.23,0.36-4.91,0.29L35.47,10.36z" />
        <path class="st0" d="M24.98,8.59c0.82,1,4.53,5.62,4.53,5.62l-2.89-2.91c-1.12-1.24-0.74-2.84-1.61-3.89L24.98,8.59z" />
        <path class="st0" d="M22.88,8.35c0.82,1,4.53,5.62,4.53,5.62l-2.89-2.91c-1.12-1.24-0.74-2.84-1.61-3.89L22.88,8.35z" />
        <path class="st0" d="M27.77,7.22c1.46-0.12,9.7-0.65,9.7-0.65l-4.87-0.21c-1.86,0.12-4.66,1.2-6.21,1.32L27.77,7.22z" />
        <path class="st0" d="M26.6,6.05c1.65-0.1,9.27-0.61,9.27-0.61l-5.04,0.05c-2.1,0.07-3.98,1.08-5.73,1.18L26.6,6.05z" />
      </g>
    </g>
  </symbol>
  <g id="Fondo"></g>
  <g id="Guías"></g>
  <g id="Primer_plano">
    <g>
      <g>
        <polygon class="st1" points="721.27,406.98 733.63,406.98 747.22,382.1 736.93,382.1 727.99,400.12 719.51,382.1 708.09,382.1 
							" />
        <path class="st1" d="M766.7,406.98h10.34l2.53-5h14.94l2.59,5h11.68l-14.73-24.88h-12.62L766.7,406.98z M782,397.4l5.17-10.44
				h0.15l4.81,10.44H782z" />
        <polygon class="st1" points="836.17,406.98 863.41,406.98 863.41,402.08 846.66,402.08 846.66,382.1 836.17,382.1 			" />
        <path class="st1" d="M891.42,406.98h15.87c2.58,0,7.13,0,10.96-0.96c7.55-1.96,10.18-6.03,10.18-11.55c0-3.69-1.5-7.79-7.03-10.3
				c-3.88-1.76-9.77-2.07-14.21-2.07h-15.77V406.98z M902.02,386.82l4.08,0.03c3.15,0,11.63,0,11.63,7.55
				c0,5.79-4.39,7.75-11.27,7.79h-4.44V386.82z" />
        <rect x="957.17" y="382.1" class="st1" width="10.65" height="24.88" />
        <polygon class="st1" points="1008.28,406.98 1020.63,406.98 1034.23,382.1 1023.94,382.1 1015,400.12 1006.52,382.1 
				995.09,382.1 			" />
        <rect x="1061.3" y="382.1" class="st1" width="10.65" height="24.88" />
        <path class="st1" d="M1099.18,406.98h10.34l2.53-5H1127l2.58,5h11.69l-14.73-24.88h-12.62L1099.18,406.98z M1114.49,397.4
				l5.17-10.44h0.16l4.81,10.44H1114.49z" />
      </g>
      <g>
        <g>
          <path class="st2" d="M436.9,368.01h30.51l8.88-24.06h42.3l8.4,24.06h32.94L516.5,255.32h-36.81L436.9,368.01z M511.49,322.64
					h-28.25l14.53-44.08h0.32L511.49,322.64z" />
          <rect x="568.77" y="246.92" class="st2" width="29.06" height="121.09" />
          <path class="st2" d="M697.94,334.43v-5.33c0-25.02-11.3-47.14-42.46-47.14c-26.16,0-45.04,16.14-45.04,43.91
					c0,27.77,21.15,44.08,48.92,44.08c10.82,0,21.47-1.62,30.84-5.33v-20.5c-8.72,4.68-17.76,6.46-25.67,6.46
					c-14.21,0-23.09-4.52-24.7-16.15H697.94z M639.49,317.96c0.65-9.69,5.65-17.6,16.14-17.6c11.63,0,16.15,7.91,16.15,17.6H639.49z
					" />
          <path class="st2" d="M708.21,368.01h29.06v-35.52c0-18.08,6.14-26.32,16.47-26.32c8.24,0,11.63,7.1,11.63,16.63v45.21h29.06
					v-35.52c0-18.08,6.13-26.32,16.47-26.32c8.23,0,11.62,7.1,11.62,16.63v45.21h29.06v-49.57c0-22.76-5.49-36.49-29.71-36.49
					c-11.95,0-23.09,4.84-29.87,16.14c-4.52-10.98-14.37-16.14-26.32-16.14c-13.24,0-24.86,5.33-30.68,17.44h-0.32v-15.5h-26.48
					V368.01z" />
          <path class="st2" d="M946.53,368.01c-1.29-6.62-1.62-13.24-1.62-19.86v-31.32c0-25.67-18.57-34.87-40.04-34.87
					c-12.43,0-23.25,1.78-33.58,5.97l0.49,19.7c8.07-4.52,17.44-6.3,26.8-6.3c10.5,0,19.05,3.07,19.21,14.53
					c-3.71-0.65-8.88-1.13-13.56-1.13c-15.5,0-43.43,3.07-43.43,28.74c0,18.25,14.86,26.48,31.49,26.48
					c11.95,0,20.02-4.68,26.64-15.18h0.32c0,4.36,0.49,8.72,0.65,13.24H946.53z M887.92,341.37c0-8.07,7.75-11.14,17.6-11.14
					c4.36,0,8.55,0.32,12.27,0.48c0,9.85-6.94,19.86-17.92,19.86C893.09,350.57,887.92,347.18,887.92,341.37z" />
          <path class="st2" d="M958.58,368.01h29.06v-35.52c0-18.08,6.13-26.32,18.08-26.32c7.91,0,13.4,5.33,13.4,21.15v40.69h29.06
					v-52.47c0-17.44-9.2-33.58-32.13-33.58c-13.24,0-24.86,5.33-30.68,17.44h-0.32v-15.5h-26.48V368.01z" />
          <path class="st2" d="M1143.1,368.01c-1.29-6.62-1.61-13.24-1.61-19.86v-31.32c0-25.67-18.57-34.87-40.04-34.87
					c-12.43,0-23.25,1.78-33.58,5.97l0.48,19.7c8.07-4.52,17.44-6.3,26.8-6.3c10.49,0,19.05,3.07,19.21,14.53
					c-3.71-0.65-8.88-1.13-13.56-1.13c-15.5,0-43.43,3.07-43.43,28.74c0,18.25,14.85,26.48,31.48,26.48
					c11.95,0,20.02-4.68,26.64-15.18h0.32c0,4.36,0.49,8.72,0.65,13.24H1143.1z M1084.49,341.37c0-8.07,7.75-11.14,17.6-11.14
					c4.36,0,8.56,0.32,12.27,0.48c0,9.85-6.94,19.86-17.92,19.86C1089.66,350.57,1084.49,347.18,1084.49,341.37z" />
        </g>
        <path class="st2" d="M1194.12,367.91c9.68,0,17.57-7.89,17.57-17.57s-7.89-17.57-17.57-17.57c-9.69,0-17.57,7.88-17.57,17.57
				S1184.44,367.91,1194.12,367.91z M1194.12,364.5c-7.35,0-13.29-5.94-13.29-14.16c0-8.22,5.94-14.16,13.29-14.16
				c7.35,0,13.29,5.94,13.29,14.16C1207.41,358.56,1201.47,364.5,1194.12,364.5z M1187.36,360.22h3.7v-8.56h2.24l5.16,8.56h3.8
				l-5.35-8.71c3.26-0.29,5.21-1.95,5.21-5.35c0-4.18-2.58-5.84-7.35-5.84h-7.4V360.22z M1191.06,343.13h3.31
				c1.9,0,4.04,0.39,4.04,2.73c0,2.68-1.9,2.97-4.09,2.97h-3.26V343.13z" />
        <g>
          <path class="st2" d="M1094.77,269.43h10.05l2.93-5.28h13.93l2.76,5.28h10.85l-14.31-24.75h-12.13L1094.77,269.43z
					 M1119.34,259.46h-9.31l4.79-9.68h0.11L1119.34,259.46z" />
          <path class="st2" d="M739.63,263.68c-2.71,0.71-6.01,1.28-9.25,1.28c-7.23,0-12.39-2.94-12.39-7.8c0-4.61,4.57-8.01,11.59-8.01
					c3.4,0,6.49,0.57,9.68,1.74l0.8-5.35c-3.56-0.71-7.23-1.28-11.01-1.28c-12.23,0-21.27,4.29-21.27,12.91
					c0,9.36,11.43,12.69,21.33,12.69c5.05,0,8.19-0.53,11.01-0.99L739.63,263.68z" />
          <polygon class="st2" points="785.18,269.43 810.39,269.43 810.39,264.53 795.07,264.53 795.07,244.68 785.18,244.68 				" />
          <rect x="851.93" y="244.68" class="st2" width="9.89" height="24.75" />
          <polygon class="st2" points="905.13,269.43 914.22,269.43 913.9,252.51 914.01,252.51 926.99,269.43 939.27,269.43 
					939.27,244.68 930.23,244.68 930.39,261.48 930.28,261.48 917.73,244.68 905.13,244.68 				" />
          <rect x="980.82" y="244.68" class="st2" width="9.89" height="24.75" />
          <path class="st2" d="M1064.11,263.68c-2.71,0.71-6.01,1.28-9.25,1.28c-7.23,0-12.39-2.94-12.39-7.8c0-4.61,4.58-8.01,11.59-8.01
					c3.41,0,6.49,0.57,9.68,1.74l0.8-5.35c-3.56-0.71-7.23-1.28-11.01-1.28c-12.23,0-21.27,4.29-21.27,12.91
					c0,9.36,11.43,12.69,21.33,12.69c5.05,0,8.19-0.53,11.01-0.99L1064.11,263.68z" />
        </g>
      </g>
      <g>
        <path class="st3" d="M248.37,256.63h135.7v36.96h-135.7V256.63z M322.28,330.54h61.79v36.96h-61.79V330.54z M192.88,367.49
				l-0.11-0.18v0.18c-30.54-0.08-55.28-24.87-55.28-55.43c0-30.56,24.73-55.35,55.28-55.43v0.17l0.11-0.17h18.53v36.96h-18.53
				l-0.11-0.18v0.18c-10.13,0.08-18.32,8.32-18.32,18.48c0,10.15,8.19,18.39,18.32,18.48v0.17l0.11-0.17h92.44v36.96H192.88z" />
        <g>
          <path class="st4" d="M248.37,367.49v61.79h-36.96v-61.79H248.37z M211.41,238.1l0.17-0.11h-0.17
					c0.08-30.54,24.87-55.27,55.43-55.27c30.56,0,55.35,24.73,55.43,55.27h-0.17l0.17,0.11v18.53h-36.96V238.1l0.18-0.11h-0.18
					c-0.08-10.13-8.32-18.32-18.48-18.32c-10.15,0-18.39,8.19-18.48,18.32h-0.17l0.17,0.11v92.44h-36.96V238.1z" />
          <rect x="285.32" y="293.58" class="st4" width="36.96" height="135.7" />
        </g>
      </g>
    </g>
  </g>
</svg>